<!DOCTYPE svg PUBLIC "-//W3C//DTD SVG 1.1//EN" "http://www.w3.org/Graphics/SVG/1.1/DTD/svg11.dtd">
<!-- Uploaded to: SVG Repo, www.svgrepo.com, Transformed by: SVG Repo Mixer Tools -->
<svg width="800px" height="800px" viewBox="0 -85.4 369.283 369.283" xmlns="http://www.w3.org/2000/svg" fill="#000000">
<g id="SVGRepo_bgCarrier" stroke-width="0"/>
<g id="SVGRepo_tracerCarrier" stroke-linecap="round" stroke-linejoin="round"/>
<g id="SVGRepo_iconCarrier">
<defs>
<style>.a{fill:#ffffff;}.b{fill:#11234a;}.c{fill:#007180;}</style>
</defs>
<path class="a" d="M152.589,38.77c-1.678.726-3.339,1.4-4.984,2.007l-.077.009c-3.923.491-9.47,1.8-13.488,2.7-5.388,1.2-10.269,3.817-14.277,4.758a48.2,48.2,0,0,1-9.028.91c-4.889-.01-16.453-1.873-22.083-2.91l-.886-.163c-2.31,16.516-12.751,66.086-18.392,84,2.111.166,5.278.444,9.667.944a41.355,41.355,0,0,1,8.04,1.92q.477.159.942.342s28.285,13.09,37.174,19.151c9.778,6.666,52.222,32.666,52.222,32.666a132.8,132.8,0,0,0,16.291,7.4,24.269,24.269,0,0,0,13.728.523c4.175-1.273,6.23-4.34,6.426-7.478l-.1-1.61c3.818,1.615,12.448,3.12,18.4-1.872,2.7-2.263,4.3-7.407,3.111-10.666l-.251-1.047c5.495,3.056,15.267,3.2,20.992-3.694,3.227-3.884,2.391-11.483-2.492-15.939l.566.383c8.252,2.684,15.852-1.111,18.37-5.333,2.4-4.02,3.446-10.669-1.477-15.909,4.663-3.024,10.483-6.007,15.383-9.023a114.46,114.46,0,0,1,12.188-6.714c-5.781-20.35-14.811-62.951-17.141-78.824-3.508.828-7.438,1.618-11.977,2.338-6.12,1.11-60.09-9.96-75.64-11.63C178.917,25.067,165.279,33.28,152.589,38.77Z"/>
<path class="a" d="M107.262,151.815a49.005,49.005,0,0,1,8.667-13.459,24.217,24.217,0,0,1,6.692-5.747,13.351,13.351,0,0,1,14.031,1.373c3.9,3.077,5.417,8.906,4.227,13.7s-10.286,18.406-15.791,21.82a12.418,12.418,0,0,1-10.547.85c-3.871-1.625-5.839-3.8-7.583-7.622C105.62,159.8,105.813,155.2,107.262,151.815Z"/>
<path class="a" d="M132.927,165.209a47.483,47.483,0,0,1,7.293-13.684,23.475,23.475,0,0,1,6-6.082,12.935,12.935,0,0,1,13.655.207c4.007,2.659,5.94,8.165,5.173,12.885s-8.461,18.59-13.5,22.324a12.027,12.027,0,0,1-10.114,1.662c-3.867-1.26-5.94-3.206-7.929-6.753C131.978,173.046,131.8,168.594,132.927,165.209Z"/>
<path class="a" d="M155.051,182.806c.774-4.29,3.961-11.762,7.392-14.791a10.568,10.568,0,0,1,11.238-1.452c3.606,1.709,5.4,6.758,5.333,10.725s-3.118,12.494-6.815,16.159a9.982,9.982,0,0,1-8.108,2.566,10.6,10.6,0,0,1-7.313-4.605A11.905,11.905,0,0,1,155.051,182.806Z"/>
<path class="a" d="M82.734,146.887c-1.232-3.192-.217-8.768,1.817-11.282,3.281-4.058,10.525-3.075,14.434-.62,2.881,1.809,6.7,5.868,7.553,7.858,2.584,5.41.026,10.156-1.887,11.637-2.245,1.739-7.745,2.312-10.549,1.867A15.383,15.383,0,0,1,82.734,146.887Z"/>
<path class="b" d="M2.609,13.6c23.014,6.276,61.308,16.276,71.1,19.251C64.267,69.593,56.77,121.3,48.788,142.19c-8.053-1.861-32.659-8.181-47.157-11.8"/>
<path class="c" d="M366.674,2.207c-23.013,6.277-61.308,16.276-71.1,19.251C305.016,58.2,312.513,109.909,320.5,130.8c8.054-1.861,32.659-8.18,47.157-11.8"/>
<path class="a" d="M287.371,28.542c3.094-.982,6.592-2.029,8.969-2.714l.31-.091c7.619,31,14,70.877,20.465,94.419-.286.082-.436.127-.436.127-4.037,1.22-10.274,2.158-14.952,3.388-5.236-11.375-20.06-81.086-20.849-92.829A60.89,60.89,0,0,1,287.371,28.542Z"/>
<path class="a" d="M52.381,130.767c6.4-23.625,12.712-62.946,20.243-93.6.2.037.319.053.319.053,4.71,1.356,13.537,4.157,15.25,5.092-.788,11.743-15.4,81.375-20.637,92.751-4.678-1.23-10.915-2.168-14.952-3.388l-.435-.129Q52.276,131.16,52.381,130.767Z"/>
<path d="M187.63,66.829c-3.846-.773-8.153.1-11.932.829a58.225,58.225,0,0,0-6.894,1.747c-2.183.708-4.9,1.5-6.583,3.134a12.034,12.034,0,0,0-2.127,3.372c-.641,1.259-1.269,2.523-1.9,3.786-1.133,2.267-2.273,4.534-3.532,6.734a37.238,37.238,0,0,1-9.419,11.293,11.508,11.508,0,0,1-6.115,2.63,12.607,12.607,0,0,1-6.282-.405c-2-.823-4.115-2.695-4.383-4.964a26.2,26.2,0,0,1,.161-4.053q.1-2.462.161-4.926c.127-5.168.12-10.344.534-15.5q.328-4.076,1.018-8.1c.49-2.866.971-5.924,2.326-8.53,2.5-4.806,7.615-8.145,12.649-9.783a133.924,133.924,0,0,0,15.1-6.249c10.17-4.743,20.852-9.891,32.356-9.485.746.026,1.478.1,2.218.187q.406.05.811.1l.424.055c.182.024.115.015-.2-.028l.357.049q2.084.289,4.162.611c3.5.54,6.984,1.126,10.469,1.723,8.183,1.4,16.353,2.873,24.531,4.3,7.492,1.309,14.988,2.623,22.518,3.692,2.636.375,5.279.744,7.933.956a28.011,28.011,0,0,0,7.376-.608q4.367-.773,8.687-1.777c3.007-.7,1.734-5.328-1.276-4.629q-4.547,1.056-9.144,1.858c-.864.151-1.731.283-2.594.434-.89.155.476.025.016,0-.3-.016-.623.031-.93.029a53.14,53.14,0,0,1-6.409-.57l-.966-.125c-.644-.085.344.047-.063-.009l-.512-.07q-1.244-.173-2.484-.357-2.57-.38-5.134-.792c-3.994-.639-7.982-1.317-11.968-2.006-15.166-2.621-30.316-5.784-45.6-7.641-11.2-1.36-22.319,3.208-32.277,7.763-5.106,2.335-10.138,4.875-15.4,6.835a76.033,76.033,0,0,0-7.893,3.024,28,28,0,0,0-7.114,5.118,20.615,20.615,0,0,0-5,7.839,49.307,49.307,0,0,0-1.953,9.089,129.446,129.446,0,0,0-1.232,16.316c-.056,2.714-.095,5.428-.177,8.141q-.074,2.465-.2,4.926a10.525,10.525,0,0,0,6.013,10.972,14.591,14.591,0,0,0,7.59,1.526,19.081,19.081,0,0,0,7.689-1.661,27.034,27.034,0,0,0,6.516-5.065,49.617,49.617,0,0,0,8.792-12.516c1.279-2.434,2.478-4.91,3.722-7.363.472-.931.887-2.279,1.763-2.891a11.612,11.612,0,0,1,2.748-1.239,53.94,53.94,0,0,1,13.55-3.03c.892-.082,1.789-.142,2.685-.146.347,0,.695,0,1.042.024.18.011.359.027.538.045-.679-.068-.185-.021-.032.01a2.461,2.461,0,0,0,2.952-1.676,2.424,2.424,0,0,0-1.676-2.953Z"/>
<path d="M186.351,71.455c.21.077.86.394.056.007.19.092.388.172.579.262.475.225.94.471,1.4.726,1.113.619,2.193,1.3,3.261,1.989,3.327,2.159,6.558,4.467,9.8,6.756,10.9,7.709,21.895,15.3,32.737,23.091q9.138,6.569,18.079,13.408,4.429,3.4,8.781,6.907,2.2,1.773,4.381,3.574a33.278,33.278,0,0,1,4.259,3.808,10.878,10.878,0,0,1,.564,12.8,11.105,11.105,0,0,1-5.461,3.927,15.081,15.081,0,0,1-4.292.87,11.989,11.989,0,0,1-5.326-.655,22.615,22.615,0,0,1-2.725-1.842q-1.814-1.242-3.622-2.489-4.092-2.821-8.173-5.662-7.247-5.04-14.459-10.125a2.42,2.42,0,0,0-3.283.861,2.451,2.451,0,0,0,.861,3.284q13.743,9.72,27.642,19.224a10.7,10.7,0,0,0,4.234,1.808,20.043,20.043,0,0,0,5.657.34,18.953,18.953,0,0,0,9.338-3.3,15.383,15.383,0,0,0,6.072-14.561,15.126,15.126,0,0,0-4.3-8.6,102.977,102.977,0,0,0-9.073-7.544q-9.46-7.57-19.24-14.734c-11.919-8.778-24.137-17.139-36.214-25.7-3.881-2.751-7.748-5.527-11.69-8.191a51.052,51.052,0,0,0-6.876-4.167c-.551-.257-1.112-.5-1.683-.707a2.421,2.421,0,0,0-2.952,1.676,2.452,2.452,0,0,0,1.676,2.953Z"/>
<path d="M176.208,187.172a118.589,118.589,0,0,0,15.075,6.992c5.949,2.3,13.88,3.3,19.649-.054a10.716,10.716,0,0,0,5.332-8.566,2.419,2.419,0,0,0-2.4-2.4,2.448,2.448,0,0,0-2.4,2.4c-.226,2.785-2.648,4.678-5.413,5.371a21.4,21.4,0,0,1-11.334-.612,69.3,69.3,0,0,1-8.133-3.332c-2.687-1.233-5.371-2.5-7.953-3.944-2.7-1.508-5.123,2.636-2.423,4.145Z"/>
<path d="M88.014,48.557a165.68,165.68,0,0,0,21.346,2.954,40.517,40.517,0,0,0,11.041-.954c4.442-1.038,8.531-3.254,12.941-4.431a111.115,111.115,0,0,1,14.186-2.94,2.478,2.478,0,0,0,2.4-2.4,2.414,2.414,0,0,0-2.4-2.4c-4.342.562-8.609,1.542-12.877,2.5-4.537,1.022-8.707,2.836-13.092,4.323-6.6,2.239-13.65,1.575-20.417.631q-5.946-.83-11.852-1.915A2.466,2.466,0,0,0,86.338,45.6a2.422,2.422,0,0,0,1.676,2.953Z"/>
<path d="M273.742,130.95c4.231-2.6,8.629-4.909,12.883-7.468a139.7,139.7,0,0,1,13.138-7.3,2.42,2.42,0,0,0,.861-3.284,2.456,2.456,0,0,0-3.284-.861,139.784,139.784,0,0,0-13.137,7.3c-4.254,2.559-8.652,4.87-12.884,7.468-2.628,1.613-.22,5.767,2.423,4.145Z"/>
<path d="M206.208,154.8c8.323,5.564,16.8,10.913,25.3,16.209a23.436,23.436,0,0,0,6.4,3.048,20.712,20.712,0,0,0,7.647.558c5.562-.649,11.662-3.715,13.888-9.155,2.415-5.9-.163-13.221-4.993-17.1a2.474,2.474,0,0,0-3.394,0,2.416,2.416,0,0,0,0,3.394c3.46,2.776,5.415,7.515,4.054,11.65-.6,1.806-2.382,3.443-4.291,4.573a14.255,14.255,0,0,1-6.215,1.926,16.131,16.131,0,0,1-6.518-.809,25.716,25.716,0,0,1-4.89-2.692q-6.453-4.035-12.855-8.151c-3.918-2.51-7.842-5.013-11.71-7.6-2.575-1.722-4.981,2.434-2.423,4.144Z"/>
<path d="M190.653,172.135c6.867,4.528,13.7,9.232,20.824,13.348a21.1,21.1,0,0,0,9.43,2.372,18.668,18.668,0,0,0,12.175-3.485c3.875-2.954,6.083-8.883,4.5-13.612-.974-2.916-5.612-1.666-4.629,1.276a8.264,8.264,0,0,1-2.739,8.525,14.5,14.5,0,0,1-9.942,2.459,19.787,19.787,0,0,1-4.249-.814c-.265-.081-.529-.166-.79-.259-.12-.042-.9-.357-.41-.144a10.2,10.2,0,0,1-1.223-.647q-4.866-2.968-9.653-6.066-5.46-3.516-10.876-7.1c-2.586-1.705-4.993,2.45-2.422,4.145Z"/>
<path d="M69.374,132.476c6.1.484,12.24.913,18.011,3.121a2.42,2.42,0,0,0,2.953-1.677,2.454,2.454,0,0,0-1.677-2.952c-6.148-2.352-12.784-2.777-19.287-3.292a2.42,2.42,0,0,0-2.4,2.4,2.448,2.448,0,0,0,2.4,2.4Z"/>
<path d="M39.573,21.048c-11.879-3.18-23.763-6.342-35.629-9.572A2.426,2.426,0,0,0,.906,13.79C.92,44.009.531,74.228.235,104.446Q.109,117.337,0,130.229a2.437,2.437,0,0,0,1.762,2.314c13.061,3.262,26.048,6.808,39.088,10.15,2.428.623,4.858,1.245,7.3,1.811a2.473,2.473,0,0,0,2.952-1.676c4.379-11.515,6.758-23.861,9.282-35.88C63.705,91.124,66.7,75.234,70.05,59.416c1.837-8.676,3.769-17.335,5.973-25.927a2.448,2.448,0,0,0-1.677-2.953c-11.492-3.481-23.175-6.384-34.773-9.488-2.987-.8-4.261,3.829-1.276,4.629,11.6,3.1,23.281,6.007,34.773,9.488l-1.676-2.952c-4,15.6-7.164,31.413-10.324,47.2C58.106,94.234,55.288,109.1,51.7,123.784a150.527,150.527,0,0,1-5.222,17.768l2.952-1.677c-11.981-2.778-23.835-6.149-35.738-9.239q-5.319-1.38-10.65-2.722L4.8,130.229c.252-30.953.654-61.9.834-92.857q.069-11.79.072-23.582L2.668,16.1C14.534,19.335,26.418,22.5,38.3,25.677,41.285,26.476,42.559,21.847,39.573,21.048Z"/>
<path d="M72.305,39.535q4.317,1.248,8.587,2.651c1.329.435,2.656.878,3.971,1.352.522.188,1.039.384,1.555.584.612.237-.418-.2.092.035.159.075.317.146.472.228l-1.189-2.072c-.049.715-.127,1.427-.213,2.139-.026.208-.053.416-.079.624-.083.667.076-.527-.022.165-.077.542-.154,1.083-.235,1.624-.38,2.532-.811,5.056-1.258,7.577-1.224,6.9-2.581,13.767-3.988,20.627-3.064,14.937-6.311,29.863-10.183,44.614-.778,2.967-1.586,5.929-2.485,8.863-.34,1.108-.692,2.213-1.077,3.306-.162.461-.329.921-.507,1.376-.078.2-.163.394-.239.592.2-.528.14-.324-.023.033l2.71-1.1c-4.947-1.282-10.049-1.936-14.952-3.388-2.968-.879-4.236,3.752-1.276,4.629,4.9,1.452,10,2.1,14.952,3.387a2.43,2.43,0,0,0,2.71-1.1,83.246,83.246,0,0,0,4.188-12.957c1.858-6.876,3.514-13.807,5.113-20.748,3.43-14.9,6.605-29.867,9.336-44.908a141.143,141.143,0,0,0,2.328-15.349,2.351,2.351,0,0,0-1.188-2.073,44.926,44.926,0,0,0-6.914-2.576q-4.431-1.457-8.91-2.757c-2.973-.859-4.243,3.771-1.276,4.628Z"/>
<path d="M330.986,14.284c11.879-3.18,23.763-6.342,35.629-9.573L363.577,2.4c-.014,30.164.374,60.328.67,90.49q.126,12.975.236,25.949l1.762-2.314c-13.061,3.262-26.048,6.808-39.088,10.15-2.428.622-4.858,1.244-7.3,1.811l2.953,1.676c-4.379-11.514-6.759-23.861-9.282-35.88-3.322-15.824-6.317-31.714-9.666-47.531-1.837-8.677-3.77-17.336-5.973-25.928l-1.676,2.952c11.492-3.481,23.175-6.384,34.773-9.488,2.981-.8,1.716-5.43-1.276-4.629-11.6,3.105-23.281,6.007-34.773,9.489a2.445,2.445,0,0,0-1.676,2.952c4,15.6,7.164,31.413,10.323,47.2,2.965,14.817,5.782,29.686,9.375,44.367a150.337,150.337,0,0,0,5.222,17.768,2.468,2.468,0,0,0,2.952,1.676c11.982-2.778,23.835-6.149,35.738-9.239q5.321-1.382,10.65-2.722a2.435,2.435,0,0,0,1.762-2.314c-.252-31.023-.656-62.046-.836-93.07q-.067-11.683-.07-23.369A2.425,2.425,0,0,0,365.339.083c-11.866,3.231-23.75,6.392-35.629,9.572C326.729,10.453,327.994,15.085,330.986,14.284Z"/>
<path d="M295.7,23.514q-4.539,1.31-9.042,2.737a44.911,44.911,0,0,0-6.993,2.519,2.346,2.346,0,0,0-1.189,2.072A123.716,123.716,0,0,0,280.434,44c1.244,6.95,2.626,13.876,4.06,20.789,3.127,15.078,6.44,30.145,10.39,45.031,1.339,5.047,2.593,10.29,4.771,15.058a2.417,2.417,0,0,0,2.71,1.1c4.947-1.282,10.05-1.935,14.952-3.387,2.955-.876,1.7-5.51-1.276-4.629-4.9,1.453-10,2.106-14.952,3.388l2.71,1.1a2.174,2.174,0,0,0-.187-.423c.43.545.128.317.007,0-.157-.4-.311-.8-.458-1.21-.344-.951-.659-1.912-.964-2.876-.783-2.476-1.487-4.977-2.168-7.482-1.844-6.793-3.5-13.637-5.093-20.491-3.456-14.852-6.66-29.777-9.423-44.774-.553-3-1.087-6.013-1.559-9.031q-.144-.924-.279-1.85c-.037-.257-.072-.515-.109-.772-.066-.462.063.523-.027-.212-.1-.833-.2-1.665-.261-2.5l-1.189,2.072a2.042,2.042,0,0,1,.442-.207c-.622.132-.115.05.058-.013.5-.181.992-.368,1.491-.542,1.383-.482,2.778-.931,4.174-1.373q4.344-1.376,8.724-2.636c2.962-.855,1.7-5.488-1.276-4.629Z"/>
<path d="M109.335,153.026a47.211,47.211,0,0,1,6.588-10.975c2.421-2.984,5.308-6.615,9.093-7.86a11.053,11.053,0,0,1,10.122,1.632,10.854,10.854,0,0,1,3.736,8.393,10.7,10.7,0,0,1-.61,3.789c-.035.1-.264.679-.171.454.076-.186-.171.383-.233.517-.279.6-.58,1.2-.892,1.784a68.855,68.855,0,0,1-4.818,7.67,52.248,52.248,0,0,1-5.76,6.9c-.458.45-.932.88-1.417,1.3-.089.078-.182.152-.274.226-.307.248.254-.183-.05.041-.224.165-.452.326-.688.474a9.453,9.453,0,0,1-4.83,1.37,10.22,10.22,0,0,1-8.769-4.724,12.192,12.192,0,0,1-.785-11.566A2.415,2.415,0,0,0,107.9,149.5a2.459,2.459,0,0,0-2.952,1.676,16.6,16.6,0,0,0,.339,13.6,15.972,15.972,0,0,0,8.949,8.018,14.367,14.367,0,0,0,12.661-1.624,35.107,35.107,0,0,0,6.965-7.084,79.638,79.638,0,0,0,6.3-9.193,23.025,23.025,0,0,0,3.339-8.257,16.506,16.506,0,0,0-3.223-12.373,15.06,15.06,0,0,0-11.966-5.434c-5.763.079-10.091,3.406-13.8,7.514A52.636,52.636,0,0,0,105.19,150.6a2.48,2.48,0,0,0,.861,3.284A2.417,2.417,0,0,0,109.335,153.026Z"/>
<path d="M135.242,165.847a45.484,45.484,0,0,1,5.526-10.987c2.061-3.029,4.537-6.614,8.039-8.075a9.866,9.866,0,0,1,13.988,8.925,10.061,10.061,0,0,1-.362,3.452,25.019,25.019,0,0,1-1.068,2.865,68.992,68.992,0,0,1-4.209,7.956,46.8,46.8,0,0,1-4.961,6.958c-.36.4-.731.795-1.12,1.169-.19.183-.385.359-.582.534-.1.093-.215.184-.325.272.292-.234.045-.03-.115.071a9.7,9.7,0,0,1-13.142-2.323,11.6,11.6,0,0,1-1.669-10.817c.935-2.951-3.7-4.214-4.629-1.276a16.263,16.263,0,0,0,1.193,13.055,15.735,15.735,0,0,0,9.155,7.26,14.137,14.137,0,0,0,12.441-2.45,31.753,31.753,0,0,0,6.147-7.291A72.934,72.934,0,0,0,164.8,166a24.323,24.323,0,0,0,2.78-8.509,16.106,16.106,0,0,0-4.015-11.811,14.585,14.585,0,0,0-12.23-4.391A14.9,14.9,0,0,0,144,144.064a28.969,28.969,0,0,0-5.607,5.924,51.056,51.056,0,0,0-7.783,14.583C129.619,167.5,134.254,168.762,135.242,165.847Z"/>
<path d="M157.365,183.444a29.633,29.633,0,0,1,2.224-6.793,22.937,22.937,0,0,1,3.835-6.239c3.1-3.29,9.166-3.444,11.6.676s1.611,8.267.124,12.433c-1.5,4.193-3.851,9.5-8.824,10.155a7.921,7.921,0,0,1-6.672-2.563,9.005,9.005,0,0,1-2.292-7.669,2.475,2.475,0,0,0-1.676-2.953,2.42,2.42,0,0,0-2.953,1.677c-.564,3.493-.18,7.512,1.969,10.451a13.612,13.612,0,0,0,7.827,5.519,12.361,12.361,0,0,0,10.321-2.117,19.407,19.407,0,0,0,5.334-7.362c2.569-5.477,4.417-11.69,2.119-17.587a11.664,11.664,0,0,0-6.486-7.04,13.158,13.158,0,0,0-10.324.442c-3.261,1.527-5.431,4.684-7.073,7.771a35.646,35.646,0,0,0-3.687,9.923,2.465,2.465,0,0,0,1.677,2.952A2.421,2.421,0,0,0,157.365,183.444Z"/>
<path d="M85.048,146.249A10.435,10.435,0,0,1,85.093,140c.536-1.93,1.263-3.364,3.03-4.164,3.237-1.465,7.814-.258,10.665,1.922,3.383,2.586,7.184,6.418,6.334,11.08a7.576,7.576,0,0,1-1,2.635,3.551,3.551,0,0,1-1.4,1.4,14.244,14.244,0,0,1-5.87,1.212,10.89,10.89,0,0,1-6.6-1.748,13.127,13.127,0,0,1-5.2-6.085,2.474,2.474,0,0,0-2.952-1.677,2.417,2.417,0,0,0-1.676,2.953c2.419,6.033,7.921,10.795,14.546,11.32a20.554,20.554,0,0,0,8.47-1.085,9.367,9.367,0,0,0,5.619-5.475,12.931,12.931,0,0,0-.348-10.44,20.715,20.715,0,0,0-5.232-6.392c-4.23-3.8-10.146-6.145-15.849-4.517a10.079,10.079,0,0,0-6.761,6.553,15.227,15.227,0,0,0-.445,10.036,2.463,2.463,0,0,0,2.952,1.676A2.421,2.421,0,0,0,85.048,146.249Z"/>
<path d="M226.186,128.805l-.073-.055.486.375a8.576,8.576,0,0,1-1.5-1.523l.375.486a15.151,15.151,0,0,1-1.9-3.347l.242.573a17.366,17.366,0,0,1-.6-1.667,2.508,2.508,0,0,0-1.1-1.435,2.4,2.4,0,0,0-3.525,2.711,20.344,20.344,0,0,0,1.606,3.826,16.28,16.28,0,0,0,1.542,2.285,10.626,10.626,0,0,0,2.029,1.916,2.409,2.409,0,0,0,1.849.241,2.4,2.4,0,0,0,1.676-2.952l-.242-.573a2.4,2.4,0,0,0-.861-.861Z"/>
</g>
</svg>